<svg width="1600" height="428" viewBox="0 0 1600 428" fill="none" xmlns="http://www.w3.org/2000/svg">
<g opacity="0.68" clip-path="url(#clip0_20203_209322)">
<path d="M1613 116.52C1295.13 181.182 1291.95 -41.4835 1188.23 47.838C990.606 218.034 847.255 288.113 606.369 368.397C306.63 468.287 490.866 203.133 -11.5238 269.776" stroke="url(#paint0_linear_20203_209322)" stroke-width="1.42" stroke-miterlimit="10"/>
<path d="M1613 113.681C1298.49 182.586 1295.21 -35.6584 1188.92 52.336C986.479 219.986 845.461 283.966 604.158 363.449C307.848 461.623 482.34 208.968 -11.5458 273.614" stroke="url(#paint1_linear_20203_209322)" stroke-width="1.42" stroke-miterlimit="10"/>
<path d="M1613 110.841C1301.85 183.983 1298.46 -29.84 1189.61 56.8305C982.356 221.935 843.667 279.815 601.943 358.498C309.057 454.952 473.807 214.802 -11.5872 277.448" stroke="url(#paint2_linear_20203_209322)" stroke-width="1.42" stroke-miterlimit="10"/>
<path d="M1613 108.006C1305.21 185.384 1301.72 -24.0046 1190.3 61.3293C978.233 223.891 841.672 275.063 599.732 353.538C310.031 447.536 465.28 220.628 -11.6192 281.274" stroke="url(#paint3_linear_20203_209322)" stroke-width="1.42" stroke-miterlimit="10"/>
<path d="M1613 105.166C1308.57 186.784 1304.98 -18.1774 1191 65.8263C974.119 225.843 839.826 270.704 597.53 348.599C311.192 440.655 456.76 226.474 -11.6383 285.117" stroke="url(#paint4_linear_20203_209322)" stroke-width="1.42" stroke-miterlimit="10"/>
<path d="M1613 102.327C1311.93 188.2 1308.24 -12.3522 1191.69 70.3244C969.983 227.795 837.965 266.356 595.31 343.651C312.322 433.78 448.224 232.319 -11.6797 288.961" stroke="url(#paint5_linear_20203_209322)" stroke-width="1.42" stroke-miterlimit="10"/>
<path d="M1613 99.4878C1315.29 189.585 1311.5 -6.5272 1192.38 74.8224C965.85 229.747 836.117 262.037 593.095 338.704C313.47 426.918 439.691 238.15 -11.7145 292.799" stroke="url(#paint6_linear_20203_209322)" stroke-width="1.42" stroke-miterlimit="10"/>
<path d="M1613 96.6459C1318.65 190.982 1314.75 -0.701816 1193.07 79.3143C961.737 231.697 834.284 257.712 590.897 333.753C314.641 420.066 431.184 243.982 -11.7305 296.634" stroke="url(#paint7_linear_20203_209322)" stroke-width="1.42" stroke-miterlimit="10"/>
<path d="M1613 93.8098C1322.01 192.383 1318.01 5.12633 1193.76 83.8154C957.61 233.649 832.426 253.389 588.673 328.812C315.793 413.236 422.635 249.826 -11.7717 300.481" stroke="url(#paint8_linear_20203_209322)" stroke-width="1.42" stroke-miterlimit="10"/>
<path d="M1613 90.9704C1325.37 193.786 1321.25 10.9511 1194.45 88.3099C953.49 235.598 830.59 249.089 586.459 323.851C316.96 406.4 414.105 255.654 -11.8037 304.318" stroke="url(#paint9_linear_20203_209322)" stroke-width="1.42" stroke-miterlimit="10"/>
<path d="M1613 88.1354C1328.73 195.187 1324.52 16.7803 1195.14 92.8184C949.367 237.561 828.755 244.783 584.251 318.913C318.131 399.6 405.579 261.493 -11.8354 308.153" stroke="url(#paint10_linear_20203_209322)" stroke-width="1.42" stroke-miterlimit="10"/>
<path d="M1612 85.2958C1331.1 196.587 1326.78 22.6048 1194.83 97.3063C944.237 239.506 825.919 240.476 581.036 313.956C318.308 392.795 396.046 267.314 -12.8673 311.975" stroke="url(#paint11_linear_20203_209322)" stroke-width="1.42" stroke-miterlimit="10"/>
<path d="M1612 82.457C1334.45 197.988 1330.04 28.4335 1195.52 101.805C940.117 241.459 824.093 236.186 578.828 309.008C319.492 386.007 387.523 273.165 -12.8958 315.819" stroke="url(#paint12_linear_20203_209322)" stroke-width="1.42" stroke-miterlimit="10"/>
<path d="M1612 79.6174C1337.81 199.388 1333.3 34.258 1196.21 106.302C935.994 243.411 822.266 231.904 576.617 304.06C320.678 379.237 378.993 278.999 -12.9215 319.659" stroke="url(#paint13_linear_20203_209322)" stroke-width="1.42" stroke-miterlimit="10"/>
<path d="M1612 76.7785C1341.17 200.789 1336.55 40.0929 1196.9 110.797C931.88 245.36 820.444 227.63 574.403 299.109C321.868 372.481 370.466 284.834 -12.9595 323.494" stroke="url(#paint14_linear_20203_209322)" stroke-width="1.42" stroke-miterlimit="10"/>
<path d="M1612 73.9395C1344.53 202.18 1339.81 45.9116 1197.59 115.295C927.744 247.313 818.624 223.368 572.192 294.158C323.077 365.724 361.934 290.669 -12.9881 327.335" stroke="url(#paint15_linear_20203_209322)" stroke-width="1.42" stroke-miterlimit="10"/>
<path d="M1612 71.1025C1347.89 203.589 1343.07 51.7389 1198.28 119.792C923.621 249.264 816.817 219.115 569.98 289.21C324.264 358.989 353.404 296.505 -13.0201 331.165" stroke="url(#paint16_linear_20203_209322)" stroke-width="1.42" stroke-miterlimit="10"/>
<path d="M1612 68.2541C1351.25 204.983 1346.33 57.5547 1198.97 124.281C919.494 251.207 814.997 214.863 567.756 284.253C325.454 352.261 344.864 302.334 -13.0647 334.994" stroke="url(#paint17_linear_20203_209322)" stroke-width="1.42" stroke-miterlimit="10"/>
<path d="M1612 65.4248C1354.61 206.393 1349.58 63.3896 1199.67 128.789C915.381 253.169 813.196 210.639 565.565 279.315C326.682 345.563 336.354 308.182 -13.074 338.844" stroke="url(#paint18_linear_20203_209322)" stroke-width="1.42" stroke-miterlimit="10"/>
<path d="M1612 62.5859C1357.96 207.791 1352.84 69.2117 1200.35 133.284C911.248 255.122 811.37 206.416 563.344 274.364C327.885 338.867 327.818 314.013 -13.1156 342.679" stroke="url(#paint19_linear_20203_209322)" stroke-width="1.42" stroke-miterlimit="10"/>
<path d="M1612 59.7463C1361.33 209.191 1356.1 75.0426 1201.05 137.797C907.112 257.073 809.585 202.205 561.133 269.416C329.103 332.183 319.288 319.851 -13.1345 346.516" stroke="url(#paint20_linear_20203_209322)" stroke-width="1.42" stroke-miterlimit="10"/>
<path d="M1612 56.9072C1364.69 210.594 1359.35 80.8709 1201.73 142.264C902.989 259.019 807.784 197.991 558.918 264.443C330.319 325.491 310.758 325.663 -13.179 350.328" stroke="url(#paint21_linear_20203_209322)" stroke-width="1.42" stroke-miterlimit="10"/>
<path d="M1612 54.0714C1368.07 211.995 1362.61 86.6961 1202.43 146.778C898.878 260.982 805.993 193.821 556.71 259.517C331.547 318.852 302.232 331.523 -13.2045 354.188" stroke="url(#paint22_linear_20203_209322)" stroke-width="1.42" stroke-miterlimit="10"/>
<path d="M1612 51.2324C1371.42 213.402 1365.87 92.5213 1203.12 151.273C894.751 262.924 804.202 189.646 554.499 254.566C332.775 312.211 293.702 337.358 -13.2364 358.026" stroke="url(#paint23_linear_20203_209322)" stroke-width="1.42" stroke-miterlimit="10"/>
<path d="M1612 48.3936C1374.77 214.796 1369.12 98.3498 1203.81 155.771C890.628 264.871 802.414 185.489 552.288 249.619C334.006 305.582 285.176 343.196 -13.2682 361.864" stroke="url(#paint24_linear_20203_209322)" stroke-width="1.42" stroke-miterlimit="10"/>
<path d="M1612 45.5536C1378.13 216.196 1372.38 104.174 1204.5 160.268C886.505 266.832 800.632 181.348 550.074 244.67C335.237 298.965 276.643 349.033 -13.2999 365.701" stroke="url(#paint25_linear_20203_209322)" stroke-width="1.42" stroke-miterlimit="10"/>
<path d="M1612 42.7148C1381.49 217.597 1375.64 109.999 1205.19 164.766C882.378 268.788 798.854 177.208 547.862 239.733C336.475 292.369 268.116 354.894 -13.3319 369.549" stroke="url(#paint26_linear_20203_209322)" stroke-width="1.42" stroke-miterlimit="10"/>
<path d="M1612 39.8633C1384.84 218.982 1378.9 115.815 1205.88 169.249C878.255 270.724 797.078 173.096 545.651 234.756C337.716 285.753 259.587 360.687 -13.3603 373.361" stroke="url(#paint27_linear_20203_209322)" stroke-width="1.42" stroke-miterlimit="10"/>
<path d="M1612 37.0361C1388.21 220.394 1382.16 121.652 1206.57 173.759C874.132 272.689 795.306 169.015 543.44 229.821C338.957 279.187 251.057 366.537 -13.3922 377.201" stroke="url(#paint28_linear_20203_209322)" stroke-width="1.42" stroke-miterlimit="10"/>
<path d="M1612 34.2002C1391.57 221.798 1385.4 127.481 1207.26 178.257C869.996 274.651 793.54 164.941 541.229 224.886C340.204 272.634 242.53 372.387 -13.4211 381.061" stroke="url(#paint29_linear_20203_209322)" stroke-width="1.42" stroke-miterlimit="10"/>
<path d="M1612 31.3613C1394.93 223.198 1388.66 133.306 1207.95 182.755C865.876 276.594 791.768 160.887 539.008 219.925C341.435 266.07 233.991 378.213 -13.4621 384.886" stroke="url(#paint30_linear_20203_209322)" stroke-width="1.42" stroke-miterlimit="10"/>
<path d="M1612 28.5222C1398.29 224.599 1391.93 139.134 1208.64 187.243C861.759 278.536 790.015 156.845 536.803 214.968C342.698 259.524 225.471 384.041 -13.4846 388.714" stroke="url(#paint31_linear_20203_209322)" stroke-width="1.42" stroke-miterlimit="10"/>
<path d="M1613 25.6835C1402.65 226 1396.2 144.96 1210.33 191.748C858.633 280.495 789.259 152.83 535.592 210.024C344.951 253 217.941 389.879 -12.5163 392.559" stroke="url(#paint32_linear_20203_209322)" stroke-width="1.42" stroke-miterlimit="10"/>
<path d="M1613 22.844C1406.01 227.4 1399.44 150.784 1211.01 196.246C854.493 282.447 787.493 148.854 533.362 205.076C346.189 246.486 209.396 395.717 -12.5672 396.396" stroke="url(#paint33_linear_20203_209322)" stroke-width="1.42" stroke-miterlimit="10"/>
<path d="M1613 20.0049C1409.38 228.797 1402.7 156.613 1211.71 200.741C850.386 284.4 785.759 144.886 531.167 200.125C347.459 239.985 200.882 401.551 -12.5798 400.231" stroke="url(#paint34_linear_20203_209322)" stroke-width="1.42" stroke-miterlimit="10"/>
<path d="M1613 17.1689C1412.73 230.201 1405.96 162.441 1212.4 205.242C846.26 286.355 784.019 140.953 528.956 195.18C348.718 233.499 192.349 407.392 -12.6118 404.071" stroke="url(#paint35_linear_20203_209322)" stroke-width="1.42" stroke-miterlimit="10"/>
<path d="M1613 14.342C1416.09 231.613 1409.21 168.278 1213.08 209.752C842.114 288.32 782.266 137.057 526.728 190.245C349.959 227.039 183.81 413.23 -12.6564 407.921" stroke="url(#paint36_linear_20203_209322)" stroke-width="1.42" stroke-miterlimit="10"/>
<path d="M1613 11.4912C1419.45 233.002 1412.47 174.091 1213.78 214.235C838.007 290.257 780.539 133.163 524.524 185.282C351.225 220.561 175.287 419.065 -12.6817 411.747" stroke="url(#paint37_linear_20203_209322)" stroke-width="1.42" stroke-miterlimit="10"/>
<path d="M1613 8.65128C1422.81 234.402 1415.73 179.906 1214.48 218.732C833.88 292.196 778.814 129.312 522.322 180.33C352.495 214.11 166.77 424.896 -12.7007 415.581" stroke="url(#paint38_linear_20203_209322)" stroke-width="1.42" stroke-miterlimit="10"/>
<path d="M1613 5.81259C1426.17 235.815 1418.99 185.732 1215.17 223.228C829.767 294.158 777.09 125.497 520.111 175.377C353.748 207.66 158.224 430.734 -12.7644 419.419" stroke="url(#paint39_linear_20203_209322)" stroke-width="1.42" stroke-miterlimit="10"/>
<path d="M1613 2.97266C1429.53 237.202 1422.24 191.569 1215.86 227.725C825.643 296.11 775.442 122.134 517.896 170.431C355.062 201.509 149.71 436.568 -12.7676 423.253" stroke="url(#paint40_linear_20203_209322)" stroke-width="1.42" stroke-miterlimit="10"/>
<path d="M1613 0.134766C1432.89 238.604 1425.5 197.398 1216.55 232.224C821.517 298.064 773.647 117.982 515.685 165.485C356.262 194.84 141.19 442.407 -12.7964 427.092" stroke="url(#paint41_linear_20203_209322)" stroke-width="1.42" stroke-miterlimit="10"/>
</g>
<defs>
<linearGradient id="paint0_linear_20203_209322" x1="1613.04" y1="208.776" x2="-11.5525" y2="208.776" gradientUnits="userSpaceOnUse">
<stop stop-color="#71D09C" stop-opacity="0.1"/>
<stop offset="0.08" stop-color="#71D09C"/>
<stop offset="0.34" stop-color="#71D09C"/>
<stop offset="0.63" stop-color="#42C8A5"/>
<stop offset="0.91" stop-color="#526CD2"/>
<stop offset="1" stop-color="#5657DD" stop-opacity="0.1"/>
</linearGradient>
<linearGradient id="paint1_linear_20203_209322" x1="1613.05" y1="208.741" x2="-11.5841" y2="208.741" gradientUnits="userSpaceOnUse">
<stop stop-color="#71D09C" stop-opacity="0.1"/>
<stop offset="0.08" stop-color="#71D09C"/>
<stop offset="0.34" stop-color="#71D09C"/>
<stop offset="0.63" stop-color="#42C8A5"/>
<stop offset="0.91" stop-color="#526CD2"/>
<stop offset="1" stop-color="#5657DD" stop-opacity="0.1"/>
</linearGradient>
<linearGradient id="paint2_linear_20203_209322" x1="1613.05" y1="208.719" x2="-11.6158" y2="208.719" gradientUnits="userSpaceOnUse">
<stop stop-color="#71D09C" stop-opacity="0.1"/>
<stop offset="0.08" stop-color="#71D09C"/>
<stop offset="0.34" stop-color="#71D09C"/>
<stop offset="0.63" stop-color="#42C8A5"/>
<stop offset="0.91" stop-color="#526CD2"/>
<stop offset="1" stop-color="#5657DD" stop-opacity="0.1"/>
</linearGradient>
<linearGradient id="paint3_linear_20203_209322" x1="1613.05" y1="208.585" x2="-11.6446" y2="208.585" gradientUnits="userSpaceOnUse">
<stop stop-color="#71D09C" stop-opacity="0.1"/>
<stop offset="0.08" stop-color="#71D09C"/>
<stop offset="0.34" stop-color="#71D09C"/>
<stop offset="0.63" stop-color="#42C8A5"/>
<stop offset="0.91" stop-color="#526CD2"/>
<stop offset="1" stop-color="#5657DD" stop-opacity="0.1"/>
</linearGradient>
<linearGradient id="paint4_linear_20203_209322" x1="1613.06" y1="208.556" x2="-11.6764" y2="208.556" gradientUnits="userSpaceOnUse">
<stop stop-color="#71D09C" stop-opacity="0.1"/>
<stop offset="0.08" stop-color="#71D09C"/>
<stop offset="0.34" stop-color="#71D09C"/>
<stop offset="0.63" stop-color="#42C8A5"/>
<stop offset="0.91" stop-color="#526CD2"/>
<stop offset="1" stop-color="#5657DD" stop-opacity="0.1"/>
</linearGradient>
<linearGradient id="paint5_linear_20203_209322" x1="1613.06" y1="208.549" x2="-11.7083" y2="208.549" gradientUnits="userSpaceOnUse">
<stop stop-color="#71D09C" stop-opacity="0.1"/>
<stop offset="0.08" stop-color="#71D09C"/>
<stop offset="0.34" stop-color="#71D09C"/>
<stop offset="0.63" stop-color="#42C8A5"/>
<stop offset="0.91" stop-color="#526CD2"/>
<stop offset="1" stop-color="#5657DD" stop-opacity="0.1"/>
</linearGradient>
<linearGradient id="paint6_linear_20203_209322" x1="1613.07" y1="208.572" x2="-11.7369" y2="208.572" gradientUnits="userSpaceOnUse">
<stop stop-color="#71D09C" stop-opacity="0.1"/>
<stop offset="0.08" stop-color="#71D09C"/>
<stop offset="0.34" stop-color="#71D09C"/>
<stop offset="0.63" stop-color="#42C8A5"/>
<stop offset="0.91" stop-color="#526CD2"/>
<stop offset="1" stop-color="#5657DD" stop-opacity="0.1"/>
</linearGradient>
<linearGradient id="paint7_linear_20203_209322" x1="1613.07" y1="208.626" x2="-11.7655" y2="208.626" gradientUnits="userSpaceOnUse">
<stop stop-color="#71D09C" stop-opacity="0.1"/>
<stop offset="0.08" stop-color="#71D09C"/>
<stop offset="0.34" stop-color="#71D09C"/>
<stop offset="0.63" stop-color="#42C8A5"/>
<stop offset="0.91" stop-color="#526CD2"/>
<stop offset="1" stop-color="#5657DD" stop-opacity="0.1"/>
</linearGradient>
<linearGradient id="paint8_linear_20203_209322" x1="1613.07" y1="208.719" x2="-11.8003" y2="208.719" gradientUnits="userSpaceOnUse">
<stop stop-color="#71D09C" stop-opacity="0.1"/>
<stop offset="0.08" stop-color="#71D09C"/>
<stop offset="0.34" stop-color="#71D09C"/>
<stop offset="0.63" stop-color="#42C8A5"/>
<stop offset="0.91" stop-color="#526CD2"/>
<stop offset="1" stop-color="#5657DD" stop-opacity="0.1"/>
</linearGradient>
<linearGradient id="paint9_linear_20203_209322" x1="1613.08" y1="208.856" x2="-11.8291" y2="208.856" gradientUnits="userSpaceOnUse">
<stop stop-color="#71D09C" stop-opacity="0.1"/>
<stop offset="0.08" stop-color="#71D09C"/>
<stop offset="0.34" stop-color="#71D09C"/>
<stop offset="0.63" stop-color="#42C8A5"/>
<stop offset="0.91" stop-color="#526CD2"/>
<stop offset="1" stop-color="#5657DD" stop-opacity="0.1"/>
</linearGradient>
<linearGradient id="paint10_linear_20203_209322" x1="1613.08" y1="209.051" x2="-11.8577" y2="209.051" gradientUnits="userSpaceOnUse">
<stop stop-color="#71D09C" stop-opacity="0.1"/>
<stop offset="0.08" stop-color="#71D09C"/>
<stop offset="0.34" stop-color="#71D09C"/>
<stop offset="0.63" stop-color="#42C8A5"/>
<stop offset="0.91" stop-color="#526CD2"/>
<stop offset="1" stop-color="#5657DD" stop-opacity="0.1"/>
</linearGradient>
<linearGradient id="paint11_linear_20203_209322" x1="1612.08" y1="209.312" x2="-12.8928" y2="209.312" gradientUnits="userSpaceOnUse">
<stop stop-color="#71D09C" stop-opacity="0.1"/>
<stop offset="0.08" stop-color="#71D09C"/>
<stop offset="0.34" stop-color="#71D09C"/>
<stop offset="0.63" stop-color="#42C8A5"/>
<stop offset="0.91" stop-color="#526CD2"/>
<stop offset="1" stop-color="#5657DD" stop-opacity="0.1"/>
</linearGradient>
<linearGradient id="paint12_linear_20203_209322" x1="1612.08" y1="209.565" x2="-12.9277" y2="209.565" gradientUnits="userSpaceOnUse">
<stop stop-color="#71D09C" stop-opacity="0.1"/>
<stop offset="0.08" stop-color="#71D09C"/>
<stop offset="0.34" stop-color="#71D09C"/>
<stop offset="0.63" stop-color="#42C8A5"/>
<stop offset="0.91" stop-color="#526CD2"/>
<stop offset="1" stop-color="#5657DD" stop-opacity="0.1"/>
</linearGradient>
<linearGradient id="paint13_linear_20203_209322" x1="1612.09" y1="206.278" x2="-12.95" y2="206.278" gradientUnits="userSpaceOnUse">
<stop stop-color="#71D09C" stop-opacity="0.1"/>
<stop offset="0.08" stop-color="#71D09C"/>
<stop offset="0.34" stop-color="#71D09C"/>
<stop offset="0.63" stop-color="#42C8A5"/>
<stop offset="0.91" stop-color="#526CD2"/>
<stop offset="1" stop-color="#5657DD" stop-opacity="0.1"/>
</linearGradient>
<linearGradient id="paint14_linear_20203_209322" x1="1612.09" y1="203.146" x2="-12.9817" y2="203.146" gradientUnits="userSpaceOnUse">
<stop stop-color="#71D09C" stop-opacity="0.1"/>
<stop offset="0.08" stop-color="#71D09C"/>
<stop offset="0.34" stop-color="#71D09C"/>
<stop offset="0.63" stop-color="#42C8A5"/>
<stop offset="0.91" stop-color="#526CD2"/>
<stop offset="1" stop-color="#5657DD" stop-opacity="0.1"/>
</linearGradient>
<linearGradient id="paint15_linear_20203_209322" x1="1612.1" y1="200.645" x2="-13.0104" y2="200.645" gradientUnits="userSpaceOnUse">
<stop stop-color="#71D09C" stop-opacity="0.1"/>
<stop offset="0.08" stop-color="#71D09C"/>
<stop offset="0.34" stop-color="#71D09C"/>
<stop offset="0.63" stop-color="#42C8A5"/>
<stop offset="0.91" stop-color="#526CD2"/>
<stop offset="1" stop-color="#5657DD" stop-opacity="0.1"/>
</linearGradient>
<linearGradient id="paint16_linear_20203_209322" x1="1612.1" y1="201.145" x2="-13.0424" y2="201.145" gradientUnits="userSpaceOnUse">
<stop stop-color="#71D09C" stop-opacity="0.1"/>
<stop offset="0.08" stop-color="#71D09C"/>
<stop offset="0.34" stop-color="#71D09C"/>
<stop offset="0.63" stop-color="#42C8A5"/>
<stop offset="0.91" stop-color="#526CD2"/>
<stop offset="1" stop-color="#5657DD" stop-opacity="0.1"/>
</linearGradient>
<linearGradient id="paint17_linear_20203_209322" x1="1612.1" y1="201.646" x2="-13.0743" y2="201.646" gradientUnits="userSpaceOnUse">
<stop stop-color="#71D09C" stop-opacity="0.1"/>
<stop offset="0.08" stop-color="#71D09C"/>
<stop offset="0.34" stop-color="#71D09C"/>
<stop offset="0.63" stop-color="#42C8A5"/>
<stop offset="0.91" stop-color="#526CD2"/>
<stop offset="1" stop-color="#5657DD" stop-opacity="0.1"/>
</linearGradient>
<linearGradient id="paint18_linear_20203_209322" x1="1612.11" y1="202.147" x2="-13.1026" y2="202.147" gradientUnits="userSpaceOnUse">
<stop stop-color="#71D09C" stop-opacity="0.1"/>
<stop offset="0.08" stop-color="#71D09C"/>
<stop offset="0.34" stop-color="#71D09C"/>
<stop offset="0.63" stop-color="#42C8A5"/>
<stop offset="0.91" stop-color="#526CD2"/>
<stop offset="1" stop-color="#5657DD" stop-opacity="0.1"/>
</linearGradient>
<linearGradient id="paint19_linear_20203_209322" x1="1612.11" y1="202.648" x2="-13.1315" y2="202.648" gradientUnits="userSpaceOnUse">
<stop stop-color="#71D09C" stop-opacity="0.1"/>
<stop offset="0.08" stop-color="#71D09C"/>
<stop offset="0.34" stop-color="#71D09C"/>
<stop offset="0.63" stop-color="#42C8A5"/>
<stop offset="0.91" stop-color="#526CD2"/>
<stop offset="1" stop-color="#5657DD" stop-opacity="0.1"/>
</linearGradient>
<linearGradient id="paint20_linear_20203_209322" x1="1612.12" y1="203.146" x2="-13.16" y2="203.146" gradientUnits="userSpaceOnUse">
<stop stop-color="#71D09C" stop-opacity="0.1"/>
<stop offset="0.08" stop-color="#71D09C"/>
<stop offset="0.34" stop-color="#71D09C"/>
<stop offset="0.63" stop-color="#42C8A5"/>
<stop offset="0.91" stop-color="#526CD2"/>
<stop offset="1" stop-color="#5657DD" stop-opacity="0.1"/>
</linearGradient>
<linearGradient id="paint21_linear_20203_209322" x1="1612.12" y1="203.647" x2="-13.195" y2="203.647" gradientUnits="userSpaceOnUse">
<stop stop-color="#71D09C" stop-opacity="0.1"/>
<stop offset="0.08" stop-color="#71D09C"/>
<stop offset="0.34" stop-color="#71D09C"/>
<stop offset="0.63" stop-color="#42C8A5"/>
<stop offset="0.91" stop-color="#526CD2"/>
<stop offset="1" stop-color="#5657DD" stop-opacity="0.1"/>
</linearGradient>
<linearGradient id="paint22_linear_20203_209322" x1="1612.12" y1="204.148" x2="-13.2236" y2="204.148" gradientUnits="userSpaceOnUse">
<stop stop-color="#71D09C" stop-opacity="0.1"/>
<stop offset="0.08" stop-color="#71D09C"/>
<stop offset="0.34" stop-color="#71D09C"/>
<stop offset="0.63" stop-color="#42C8A5"/>
<stop offset="0.91" stop-color="#526CD2"/>
<stop offset="1" stop-color="#5657DD" stop-opacity="0.1"/>
</linearGradient>
<linearGradient id="paint23_linear_20203_209322" x1="1612.13" y1="204.649" x2="-13.2523" y2="204.649" gradientUnits="userSpaceOnUse">
<stop stop-color="#71D09C" stop-opacity="0.1"/>
<stop offset="0.08" stop-color="#71D09C"/>
<stop offset="0.34" stop-color="#71D09C"/>
<stop offset="0.63" stop-color="#42C8A5"/>
<stop offset="0.91" stop-color="#526CD2"/>
<stop offset="1" stop-color="#5657DD" stop-opacity="0.1"/>
</linearGradient>
<linearGradient id="paint24_linear_20203_209322" x1="1612.13" y1="205.15" x2="-13.2841" y2="205.15" gradientUnits="userSpaceOnUse">
<stop stop-color="#71D09C" stop-opacity="0.1"/>
<stop offset="0.08" stop-color="#71D09C"/>
<stop offset="0.34" stop-color="#71D09C"/>
<stop offset="0.63" stop-color="#42C8A5"/>
<stop offset="0.91" stop-color="#526CD2"/>
<stop offset="1" stop-color="#5657DD" stop-opacity="0.1"/>
</linearGradient>
<linearGradient id="paint25_linear_20203_209322" x1="1612.13" y1="205.65" x2="-13.3127" y2="205.65" gradientUnits="userSpaceOnUse">
<stop stop-color="#71D09C" stop-opacity="0.1"/>
<stop offset="0.08" stop-color="#71D09C"/>
<stop offset="0.34" stop-color="#71D09C"/>
<stop offset="0.63" stop-color="#42C8A5"/>
<stop offset="0.91" stop-color="#526CD2"/>
<stop offset="1" stop-color="#5657DD" stop-opacity="0.1"/>
</linearGradient>
<linearGradient id="paint26_linear_20203_209322" x1="1612.14" y1="206.148" x2="-13.3415" y2="206.148" gradientUnits="userSpaceOnUse">
<stop stop-color="#71D09C" stop-opacity="0.1"/>
<stop offset="0.08" stop-color="#71D09C"/>
<stop offset="0.34" stop-color="#71D09C"/>
<stop offset="0.63" stop-color="#42C8A5"/>
<stop offset="0.91" stop-color="#526CD2"/>
<stop offset="1" stop-color="#5657DD" stop-opacity="0.1"/>
</linearGradient>
<linearGradient id="paint27_linear_20203_209322" x1="1612.14" y1="206.649" x2="-13.3731" y2="206.649" gradientUnits="userSpaceOnUse">
<stop stop-color="#71D09C" stop-opacity="0.1"/>
<stop offset="0.08" stop-color="#71D09C"/>
<stop offset="0.34" stop-color="#71D09C"/>
<stop offset="0.63" stop-color="#42C8A5"/>
<stop offset="0.91" stop-color="#526CD2"/>
<stop offset="1" stop-color="#5657DD" stop-opacity="0.1"/>
</linearGradient>
<linearGradient id="paint28_linear_20203_209322" x1="1612.14" y1="207.149" x2="-13.4017" y2="207.149" gradientUnits="userSpaceOnUse">
<stop stop-color="#71D09C" stop-opacity="0.1"/>
<stop offset="0.08" stop-color="#71D09C"/>
<stop offset="0.34" stop-color="#71D09C"/>
<stop offset="0.63" stop-color="#42C8A5"/>
<stop offset="0.91" stop-color="#526CD2"/>
<stop offset="1" stop-color="#5657DD" stop-opacity="0.1"/>
</linearGradient>
<linearGradient id="paint29_linear_20203_209322" x1="1612.15" y1="207.65" x2="-13.4306" y2="207.65" gradientUnits="userSpaceOnUse">
<stop stop-color="#71D09C" stop-opacity="0.1"/>
<stop offset="0.08" stop-color="#71D09C"/>
<stop offset="0.34" stop-color="#71D09C"/>
<stop offset="0.63" stop-color="#42C8A5"/>
<stop offset="0.91" stop-color="#526CD2"/>
<stop offset="1" stop-color="#5657DD" stop-opacity="0.1"/>
</linearGradient>
<linearGradient id="paint30_linear_20203_209322" x1="1612.15" y1="208.151" x2="-13.462" y2="208.151" gradientUnits="userSpaceOnUse">
<stop stop-color="#71D09C" stop-opacity="0.1"/>
<stop offset="0.08" stop-color="#71D09C"/>
<stop offset="0.34" stop-color="#71D09C"/>
<stop offset="0.63" stop-color="#42C8A5"/>
<stop offset="0.91" stop-color="#526CD2"/>
<stop offset="1" stop-color="#5657DD" stop-opacity="0.1"/>
</linearGradient>
<linearGradient id="paint31_linear_20203_209322" x1="1612.15" y1="208.652" x2="-13.491" y2="208.652" gradientUnits="userSpaceOnUse">
<stop stop-color="#71D09C" stop-opacity="0.1"/>
<stop offset="0.08" stop-color="#71D09C"/>
<stop offset="0.34" stop-color="#71D09C"/>
<stop offset="0.63" stop-color="#42C8A5"/>
<stop offset="0.91" stop-color="#526CD2"/>
<stop offset="1" stop-color="#5657DD" stop-opacity="0.1"/>
</linearGradient>
<linearGradient id="paint32_linear_20203_209322" x1="1613.16" y1="209.153" x2="-12.5194" y2="209.153" gradientUnits="userSpaceOnUse">
<stop stop-color="#71D09C" stop-opacity="0.1"/>
<stop offset="0.08" stop-color="#71D09C"/>
<stop offset="0.34" stop-color="#71D09C"/>
<stop offset="0.63" stop-color="#42C8A5"/>
<stop offset="0.91" stop-color="#526CD2"/>
<stop offset="1" stop-color="#5657DD" stop-opacity="0.1"/>
</linearGradient>
<linearGradient id="paint33_linear_20203_209322" x1="1613.16" y1="209.654" x2="-12.5514" y2="209.654" gradientUnits="userSpaceOnUse">
<stop stop-color="#71D09C" stop-opacity="0.1"/>
<stop offset="0.08" stop-color="#71D09C"/>
<stop offset="0.34" stop-color="#71D09C"/>
<stop offset="0.63" stop-color="#42C8A5"/>
<stop offset="0.91" stop-color="#526CD2"/>
<stop offset="1" stop-color="#5657DD" stop-opacity="0.1"/>
</linearGradient>
<linearGradient id="paint34_linear_20203_209322" x1="1613.16" y1="210.158" x2="-12.5798" y2="210.158" gradientUnits="userSpaceOnUse">
<stop stop-color="#71D09C" stop-opacity="0.1"/>
<stop offset="0.08" stop-color="#71D09C"/>
<stop offset="0.34" stop-color="#71D09C"/>
<stop offset="0.63" stop-color="#42C8A5"/>
<stop offset="0.91" stop-color="#526CD2"/>
<stop offset="1" stop-color="#5657DD" stop-opacity="0.1"/>
</linearGradient>
<linearGradient id="paint35_linear_20203_209322" x1="1613.17" y1="210.678" x2="-12.615" y2="210.678" gradientUnits="userSpaceOnUse">
<stop stop-color="#71D09C" stop-opacity="0.1"/>
<stop offset="0.08" stop-color="#71D09C"/>
<stop offset="0.34" stop-color="#71D09C"/>
<stop offset="0.63" stop-color="#42C8A5"/>
<stop offset="0.91" stop-color="#526CD2"/>
<stop offset="1" stop-color="#5657DD" stop-opacity="0.1"/>
</linearGradient>
<linearGradient id="paint36_linear_20203_209322" x1="1613.17" y1="211.21" x2="-12.6501" y2="211.21" gradientUnits="userSpaceOnUse">
<stop stop-color="#71D09C" stop-opacity="0.1"/>
<stop offset="0.08" stop-color="#71D09C"/>
<stop offset="0.34" stop-color="#71D09C"/>
<stop offset="0.63" stop-color="#42C8A5"/>
<stop offset="0.91" stop-color="#526CD2"/>
<stop offset="1" stop-color="#5657DD" stop-opacity="0.1"/>
</linearGradient>
<linearGradient id="paint37_linear_20203_209322" x1="1613.17" y1="211.756" x2="-12.6818" y2="211.756" gradientUnits="userSpaceOnUse">
<stop stop-color="#71D09C" stop-opacity="0.1"/>
<stop offset="0.08" stop-color="#71D09C"/>
<stop offset="0.34" stop-color="#71D09C"/>
<stop offset="0.63" stop-color="#42C8A5"/>
<stop offset="0.91" stop-color="#526CD2"/>
<stop offset="1" stop-color="#5657DD" stop-opacity="0.1"/>
</linearGradient>
<linearGradient id="paint38_linear_20203_209322" x1="1613.17" y1="212.308" x2="-12.7134" y2="212.308" gradientUnits="userSpaceOnUse">
<stop stop-color="#71D09C" stop-opacity="0.1"/>
<stop offset="0.08" stop-color="#71D09C"/>
<stop offset="0.34" stop-color="#71D09C"/>
<stop offset="0.63" stop-color="#42C8A5"/>
<stop offset="0.91" stop-color="#526CD2"/>
<stop offset="1" stop-color="#5657DD" stop-opacity="0.1"/>
</linearGradient>
<linearGradient id="paint39_linear_20203_209322" x1="1613.16" y1="212.866" x2="-12.7644" y2="212.866" gradientUnits="userSpaceOnUse">
<stop stop-color="#71D09C" stop-opacity="0.1"/>
<stop offset="0.08" stop-color="#71D09C"/>
<stop offset="0.34" stop-color="#71D09C"/>
<stop offset="0.63" stop-color="#42C8A5"/>
<stop offset="0.91" stop-color="#526CD2"/>
<stop offset="1" stop-color="#5657DD" stop-opacity="0.1"/>
</linearGradient>
<linearGradient id="paint40_linear_20203_209322" x1="1613.19" y1="213.43" x2="-12.7741" y2="213.43" gradientUnits="userSpaceOnUse">
<stop stop-color="#71D09C" stop-opacity="0.1"/>
<stop offset="0.08" stop-color="#71D09C"/>
<stop offset="0.34" stop-color="#71D09C"/>
<stop offset="0.63" stop-color="#42C8A5"/>
<stop offset="0.91" stop-color="#526CD2"/>
<stop offset="1" stop-color="#5657DD" stop-opacity="0.1"/>
</linearGradient>
<linearGradient id="paint41_linear_20203_209322" x1="1613.18" y1="213.999" x2="-12.8187" y2="213.999" gradientUnits="userSpaceOnUse">
<stop stop-color="#71D09C" stop-opacity="0.1"/>
<stop offset="0.08" stop-color="#71D09C"/>
<stop offset="0.34" stop-color="#71D09C"/>
<stop offset="0.63" stop-color="#42C8A5"/>
<stop offset="0.91" stop-color="#526CD2"/>
<stop offset="1" stop-color="#5657DD" stop-opacity="0.1"/>
</linearGradient>
<clipPath id="clip0_20203_209322">
<rect width="1626" height="428" fill="white" transform="matrix(-1 0 0 1 1613 0)"/>
</clipPath>
</defs>
</svg>
