<svg width="1600" height="1063" viewBox="0 0 1600 1063" fill="none" xmlns="http://www.w3.org/2000/svg">
<g style="mix-blend-mode:screen" opacity="0.5" clip-path="url(#clip0_20963_184503)">
<path d="M1996.46 198.717C1775.83 167.802 1518.05 219.915 1407.12 342.359C1360.54 393.699 1341.87 452.879 1332.09 511.506C1307.56 659.564 1335.47 811.046 1284.27 956.454C1264.71 1011.77 1217.78 1074.48 1127.47 1082.65C1046.58 1090.05 976.176 1048.98 927.997 1007.91C860.618 950.603 808.529 886.786 767.106 820.651C720.172 745.573 685.682 665.858 610.659 600.164C535.636 534.471 405.678 484.345 279.276 502.673C156.608 520.449 79.9846 593.208 -6.77222 650.069C-32.9059 667.072 -63.1285 683.854 -100.64 687.277C-158.063 692.466 -208.553 665.416 -249.976 640.243" stroke="#5C5C5C" stroke-width="0.75" stroke-miterlimit="10"/>
<path d="M2000.01 203.354C1781.16 173.543 1526.4 224.884 1414.4 345.009C1367.47 395.355 1347.38 453.541 1336.18 511.064C1321.42 587.136 1320.89 664.312 1316.45 741.267C1312.36 811.598 1305.07 881.597 1280.18 950.382C1260.45 1005.14 1213.87 1066.64 1125.51 1076.14C1062.93 1082.87 1006.4 1061.67 960.708 1033.41C947.73 1025.46 935.819 1016.96 924.796 1008.35C897.418 987.038 872.173 964.514 849.062 940.666C823.106 913.947 800.172 885.682 779.55 856.865C771.727 845.824 764.083 834.673 756.794 823.411C707.904 748.002 671.815 667.845 595.547 601.599C521.59 536.9 394.122 487.436 270.031 504.219C149.496 520.559 73.4061 590.117 -12.6396 644.549C-38.4178 660.889 -68.4628 677.009 -105.441 680.211C-161.975 685.069 -211.932 658.791 -252.999 634.501" stroke="#606060" stroke-width="0.7333" stroke-miterlimit="10"/>
<path d="M2003.57 208.101C1786.5 179.395 1534.76 230.073 1421.52 347.879C1374.05 397.232 1352.72 454.314 1340.09 510.954C1323.38 585.811 1320.89 661.883 1314.85 737.844C1309.34 807.291 1301.16 876.628 1275.92 944.64C1255.83 998.851 1209.78 1059.13 1123.38 1069.95C1061.33 1077.79 1005.16 1058.91 958.577 1032.64C945.422 1025.24 932.977 1017.18 921.599 1009.12C893.154 989.025 866.665 967.274 842.487 943.868C815.287 917.59 791.464 889.215 770.13 860.288C761.952 849.137 754.13 837.985 746.486 826.723C695.818 750.983 657.595 670.495 580.439 603.587C507.193 540.101 382.391 491.08 260.612 506.427C142.21 521.222 66.6535 587.688 -18.8588 639.801C-44.4592 655.479 -74.1485 670.826 -110.593 673.807C-166.239 678.444 -215.484 652.94 -256.373 629.422" stroke="#646464" stroke-width="0.7167" stroke-miterlimit="10"/>
<path d="M2006.95 212.739C1791.48 185.136 1542.94 235.152 1428.63 350.529C1380.63 398.888 1358.05 454.866 1344 510.512C1325.51 584.044 1320.89 659.012 1313.25 734.09C1306.49 802.654 1297.25 871.219 1271.65 938.568C1251.2 992.227 1205.69 1051.3 1121.24 1063.44C1059.91 1072.27 1003.73 1055.93 956.263 1031.53C942.752 1024.69 930.129 1017.18 918.218 1009.56C888.884 990.571 860.973 969.703 835.728 946.628C807.283 920.682 782.749 892.307 760.527 863.269C751.993 852.118 743.993 840.856 736.171 829.594C683.548 753.522 643.547 672.593 565.324 605.243C492.79 542.862 370.832 494.392 251.364 508.193C135.273 521.553 59.8944 584.817 -24.7291 634.501C-50.1517 649.407 -79.4854 664.091 -115.397 666.962C-170.153 671.268 -218.865 646.646 -259.577 623.902" stroke="#686868" stroke-width="0.7" stroke-miterlimit="10"/>
<path d="M2010.5 217.486C1796.81 190.988 1551.29 240.231 1435.74 353.4C1387.2 400.876 1363.38 455.639 1347.91 510.402C1327.47 582.609 1320.71 656.473 1311.82 730.668C1303.65 798.349 1293.51 866.25 1267.56 932.827C1246.93 985.934 1201.78 1043.9 1119.46 1057.26C1058.49 1067.08 1002.84 1053.17 954.485 1030.76C940.796 1024.47 927.64 1017.51 915.373 1010.33C884.973 992.448 855.994 972.464 829.505 949.72C799.816 924.215 774.393 895.729 751.46 866.581C742.748 855.43 734.215 844.058 726.215 832.686C671.814 756.283 630.036 675.022 550.568 607.01C478.922 545.733 359.632 497.815 242.474 510.071C128.517 521.995 53.6717 582.057 -30.2406 629.423C-55.4854 643.666 -84.4636 657.687 -119.842 660.227C-173.709 664.202 -221.888 640.353 -262.244 618.603" stroke="#6C6C6C" stroke-width="0.6833" stroke-miterlimit="10"/>
<path d="M2014.05 222.123C1802.14 196.729 1559.65 245.309 1443.02 356.05C1394.13 402.532 1368.89 456.191 1352 509.96C1329.78 580.953 1320.89 653.713 1310.4 726.914C1300.8 793.711 1289.78 860.84 1263.47 926.754C1242.49 979.309 1197.69 1036.17 1117.51 1050.74C1057.06 1061.67 1001.6 1050.08 952.35 1029.55C938.483 1023.8 924.972 1017.4 912.35 1010.67C880.883 993.993 850.66 974.782 823.104 952.479C792.17 927.417 765.859 898.821 742.214 869.562C733.147 858.301 724.436 847.039 716.08 835.556C659.724 758.712 616.168 677.119 535.633 608.555C464.877 548.382 348.253 501.017 233.229 511.837C121.405 522.215 47.0926 579.186 -36.1086 624.233C-61.1757 637.703 -89.7982 651.063 -124.465 653.492C-177.444 657.135 -224.911 634.17 -265.09 613.192" stroke="#707070" stroke-width="0.6667" stroke-miterlimit="10"/>
<path d="M2017.44 226.871C1807.3 202.581 1567.83 250.388 1450.14 358.92C1400.72 404.409 1374.23 457.074 1355.92 509.739C1331.74 579.407 1320.89 651.063 1308.81 723.27C1297.78 789.295 1285.87 855.651 1259.2 920.792C1237.87 972.795 1193.6 1028.55 1115.38 1044.34C1055.47 1056.37 1000.36 1047.1 950.222 1028.55C936 1023.25 922.133 1017.4 909.155 1011.22C876.799 995.649 845.154 977.322 816.531 955.35C784.353 930.729 757.153 902.023 732.797 872.654C723.374 861.392 714.485 850.02 705.774 838.537C647.64 761.361 602.306 679.327 520.527 610.211C450.659 551.143 336.524 504.329 223.989 513.603C114.299 522.547 40.5201 576.316 -41.97 618.934C-66.8593 631.741 -95.1263 644.438 -129.26 646.536C-181.528 649.848 -228.284 627.656 -268.107 607.562" stroke="#747474" stroke-width="0.65" stroke-miterlimit="10"/>
<path d="M2020.99 231.508C1812.63 208.322 1576.19 255.467 1457.25 361.681C1407.29 406.176 1379.56 457.737 1360 509.518C1334.05 577.972 1321.07 648.413 1307.38 719.737C1295.11 784.879 1282.14 850.462 1255.11 914.941C1233.6 966.281 1189.69 1021.15 1113.42 1037.94C1054.04 1051.07 999.111 1044.23 948.088 1027.56C933.687 1022.81 919.465 1017.51 905.954 1011.77C872.531 997.416 839.642 979.861 809.952 958.221C776.53 933.931 748.44 905.114 723.373 875.745C713.773 864.484 704.529 853.001 695.64 841.519C635.55 764.011 588.438 681.536 505.592 611.978C436.614 553.903 325.145 507.752 214.744 515.591C107.364 522.988 33.9409 573.666 -47.8381 613.965C-72.5495 626 -100.461 638.035 -134.062 640.022C-185.44 643.003 -231.663 621.694 -271.13 602.372" stroke="#787878" stroke-width="0.6333" stroke-miterlimit="10"/>
<path d="M2024.37 236.256C1817.61 214.174 1584.36 260.656 1464.36 364.441C1413.87 408.052 1384.9 458.399 1363.92 509.187C1336.01 576.316 1320.89 645.763 1305.78 716.094C1292.09 780.352 1278.23 845.162 1250.67 908.978C1228.8 959.766 1185.25 1013.65 1111.11 1031.53C1052.09 1045.78 997.689 1041.25 945.778 1026.56C931.022 1022.37 916.444 1017.62 902.577 1012.32C868.088 999.072 834.131 982.4 803.198 961.202C768.531 937.353 739.552 908.426 713.774 878.947C703.819 867.575 694.396 856.092 685.152 844.499C623.284 766.661 574.217 683.744 490.304 613.634C422.214 556.663 313.413 511.174 205.322 517.357C100.076 523.319 27.1865 570.795 -53.8814 608.666C-78.4151 620.038 -105.971 631.41 -139.038 633.066C-189.528 635.716 -235.217 615.29 -274.329 596.741" stroke="#7C7C7C" stroke-width="0.6167" stroke-miterlimit="10"/>
<path d="M2027.93 240.893C1822.95 219.915 1592.72 265.625 1471.65 367.201C1420.81 409.819 1390.41 459.061 1368.01 508.966C1338.14 574.88 1321.07 643.113 1304.54 712.561C1289.43 775.935 1274.67 840.083 1246.76 903.127C1224.54 953.363 1181.51 1006.25 1109.33 1025.24C1050.84 1040.7 996.622 1038.38 943.821 1025.68C928.888 1022.04 913.954 1017.84 899.554 1012.87C864.176 1000.84 828.797 984.94 796.797 964.072C760.885 940.666 731.018 911.628 704.529 882.039C694.395 870.666 684.44 859.073 675.017 847.481C611.372 769.311 560.527 686.062 475.37 615.29C408.169 559.423 302.034 514.487 196.077 519.234C92.9646 523.651 20.608 568.035 -59.9265 603.587C-84.1047 614.186 -111.661 624.896 -144.017 626.442C-193.617 628.871 -238.596 609.107 -277.53 591.442" stroke="#808080" stroke-width="0.6" stroke-miterlimit="10"/>
<path d="M2031.48 245.53C1828.28 225.657 1601.25 270.704 1478.76 369.851C1427.38 411.475 1395.74 459.614 1371.92 508.525C1340.27 573.114 1321.07 640.243 1302.94 708.807C1286.4 771.298 1270.76 834.673 1242.49 897.054C1220.09 946.738 1177.25 998.631 1107.2 1018.73C1049.07 1035.29 995.199 1035.4 941.687 1024.58C926.398 1021.49 911.109 1017.73 896.531 1013.32C860.086 1002.38 823.463 987.369 790.396 966.943C753.24 943.978 722.484 914.83 695.283 885.13C684.794 873.648 674.661 862.165 664.883 850.462C599.282 771.961 546.659 688.271 460.435 616.947C394.123 562.184 290.477 517.799 187.009 521.001C86.0299 523.982 14.2067 565.165 -65.6167 598.398C-89.617 608.335 -116.817 618.271 -148.64 619.596C-197.352 621.694 -241.797 602.814 -280.375 585.922" stroke="#848484" stroke-width="0.5833" stroke-miterlimit="10"/>
<path d="M2034.86 250.278C1833.43 231.508 1609.43 275.782 1485.87 372.722C1433.96 413.352 1401.07 460.497 1375.83 508.304C1342.23 571.568 1321.07 637.704 1301.34 705.274C1283.38 766.882 1266.85 829.595 1238.23 891.203C1215.47 940.335 1173.16 991.344 1105.07 1012.43C1047.47 1030.21 993.955 1032.53 939.377 1023.69C923.91 1021.15 908.265 1017.95 893.154 1013.98C855.642 1004.26 817.953 990.019 783.641 969.924C745.241 947.401 713.774 918.143 685.684 888.222C674.84 876.739 664.528 865.146 654.573 853.443C587.194 774.611 532.793 690.479 445.325 618.713C379.902 565.054 278.923 521.222 177.588 522.878C78.92 524.424 7.45217 562.405 -71.6601 593.209C-95.4826 602.483 -122.327 611.757 -153.617 612.861C-201.44 614.628 -245.351 596.521 -283.574 580.512" stroke="#888888" stroke-width="0.5667" stroke-miterlimit="10"/>
<path d="M2038.41 254.915C1838.77 237.249 1617.79 280.861 1493.16 375.371C1440.89 415.008 1406.58 461.049 1379.92 507.973C1344.54 570.022 1321.25 634.943 1299.91 701.63C1280.71 762.465 1262.94 824.295 1234.14 885.24C1211.2 933.82 1169.25 983.946 1103.29 1006.03C1046.22 1025.02 992.888 1029.66 937.598 1022.7C921.776 1020.71 905.953 1018.06 890.308 1014.53C851.908 1005.92 812.796 992.558 777.418 972.795C737.773 950.603 705.417 921.344 676.616 891.313C665.594 879.83 654.927 868.127 644.616 856.313C575.282 777.15 519.281 692.577 430.746 620.259C366.39 567.593 267.899 524.424 168.876 524.644C72.341 524.644 1.40658 559.534 -76.9946 588.019C-100.639 596.521 -127.129 605.133 -157.885 606.126C-204.819 607.562 -248.197 590.338 -286.064 575.212" stroke="#8C8C8C" stroke-width="0.55" stroke-miterlimit="10"/>
<path d="M2041.97 259.663C1844.1 243.101 1626.14 286.05 1500.27 378.242C1447.47 416.996 1411.92 461.822 1383.83 507.752C1346.49 568.477 1321.07 632.404 1298.49 698.097C1277.87 758.049 1259.2 819.216 1230.05 879.389C1206.76 927.417 1165.33 976.77 1101.33 999.735C1044.62 1020.05 991.643 1026.78 935.464 1021.82C919.464 1020.38 903.108 1018.17 887.108 1015.19C847.641 1007.79 807.284 995.208 770.839 975.886C729.95 954.136 696.705 924.767 667.193 894.625C655.816 883.032 644.971 871.329 634.304 859.515C563.192 780.021 505.236 695.006 415.634 622.136C352.167 570.575 256.343 527.957 159.631 526.632C65.2294 525.196 -5.17166 556.884 -82.8617 582.94C-106.329 590.779 -132.462 598.729 -162.507 599.391C-208.73 600.495 -251.22 584.155 -289.087 569.802" stroke="#909090" stroke-width="0.5333" stroke-miterlimit="10"/>
<path d="M2045.35 264.3C1849.08 248.843 1634.32 291.019 1507.38 381.002C1454.05 418.762 1417.25 462.484 1387.74 507.531C1348.45 567.042 1321.07 629.754 1296.89 694.564C1274.85 753.633 1255.29 814.027 1225.78 873.537C1202.14 920.903 1161.25 969.593 1099.2 993.331C1043.02 1014.86 990.221 1023.91 933.331 1020.82C916.976 1019.94 900.442 1018.28 883.909 1015.74C843.375 1009.45 801.774 997.747 764.262 978.757C722.128 957.448 687.995 927.969 657.772 897.717C646.216 886.124 635.016 874.31 623.994 862.496C550.926 782.67 491.369 697.214 400.524 623.792C337.945 573.335 244.61 531.269 150.209 528.509C57.9409 525.528 -11.9267 554.124 -88.9056 577.862C-112.195 584.928 -137.973 592.215 -167.484 592.767C-212.818 593.54 -254.775 577.972 -292.286 564.502" stroke="#949494" stroke-width="0.5167" stroke-miterlimit="10"/>
<path d="M2048.9 269.047C1854.41 254.694 1642.67 296.208 1514.67 383.762C1460.81 420.529 1422.76 463.147 1391.83 507.2C1350.76 565.385 1321.25 626.994 1295.47 690.81C1272 748.996 1251.56 808.617 1221.69 867.465C1197.87 914.278 1157.33 962.196 1097.24 986.817C1041.6 1009.67 989.154 1020.82 931.197 1019.72C914.664 1019.39 897.597 1018.28 880.886 1016.19C839.463 1011 796.618 1000.18 757.862 981.628C714.483 960.76 679.46 931.06 648.527 900.808C636.615 889.215 625.06 877.401 614.037 865.477C539.192 785.32 477.858 699.422 385.767 625.558C324.078 576.095 233.41 534.692 141.319 530.386C51.3626 525.969 -18.1495 551.474 -94.4173 572.783C-117.529 579.186 -142.951 585.701 -171.929 586.032C-216.375 586.473 -257.797 571.789 -294.954 559.092" stroke="#989898" stroke-width="0.5" stroke-miterlimit="10"/>
<path d="M2052.46 273.685C1859.75 260.436 1651.03 301.176 1521.79 386.523C1467.56 422.295 1428.1 463.919 1395.74 506.979C1352.72 563.84 1321.25 624.454 1293.87 687.277C1269.16 744.579 1247.65 803.538 1217.25 861.613C1193.07 907.874 1153.07 955.019 1094.94 980.524C1039.82 1004.7 987.557 1018.06 928.889 1018.84C912 1019.06 894.755 1018.39 877.511 1016.85C835.021 1012.87 790.932 1002.83 751.109 984.609C706.486 964.183 670.574 934.373 638.929 904.01C626.663 892.307 614.929 880.493 603.551 868.458C526.75 787.97 463.816 701.63 370.481 627.215C309.858 578.855 221.679 538.004 131.722 532.152C43.8986 526.19 -25.0801 548.603 -100.637 567.483C-123.57 573.224 -148.637 579.076 -177.082 579.187C-220.638 579.407 -261.35 565.496 -298.329 553.572" stroke="#9C9C9C" stroke-width="0.4833" stroke-miterlimit="10"/>
<path d="M2055.84 278.432C1864.9 266.287 1659.21 306.366 1528.89 389.283C1474.14 424.062 1433.43 464.582 1399.65 506.648C1354.85 562.294 1321.07 621.694 1292.27 683.634C1266.14 740.053 1243.74 798.238 1212.98 855.651C1188.45 901.36 1149.16 947.732 1092.8 974.12C1038.22 999.624 986.131 1015.08 926.575 1017.73C909.508 1018.5 891.73 1018.39 874.13 1017.29C830.751 1014.42 785.24 1005.26 744.35 987.369C698.483 967.274 661.682 937.464 629.326 906.991C616.882 895.288 604.793 883.364 593.059 871.329C514.48 790.51 449.59 703.728 355.189 628.76C295.455 581.395 209.942 541.206 122.297 533.919C36.6066 526.521 -31.8389 545.733 -106.862 562.294C-129.44 567.262 -154.33 572.452 -182.241 572.341C-224.908 572.231 -265.087 559.092 -301.709 548.051" stroke="#A0A0A0" stroke-width="0.4667" stroke-miterlimit="10"/>
<path d="M2059.39 283.069C1870.23 272.029 1667.56 311.445 1536.01 392.043C1480.72 425.939 1438.76 465.244 1403.56 506.317C1356.8 560.638 1321.07 618.934 1290.85 679.99C1263.29 735.636 1240 793.049 1208.89 849.689C1184.18 894.846 1145.24 940.556 1090.84 967.716C1036.98 994.656 985.064 1012.21 924.619 1016.74C907.196 1018.06 889.24 1018.5 871.107 1017.73C826.662 1016.08 779.905 1007.68 737.949 990.24C690.837 970.587 653.326 940.666 620.081 910.083C607.281 898.269 595.014 886.345 583.103 874.31C502.568 793.159 436.078 705.936 340.432 630.416C281.765 584.155 198.564 544.629 113.229 535.685C29.6723 526.853 -38.2398 542.862 -112.552 556.994C-134.952 561.3 -159.486 565.827 -186.864 565.496C-228.642 565.054 -268.288 552.799 -304.555 542.531" stroke="#A4A4A4" stroke-width="0.45" stroke-miterlimit="10"/>
<path d="M2062.95 287.706C1875.56 277.77 1675.92 316.413 1543.29 394.803C1487.47 427.705 1444.27 465.907 1407.65 506.096C1358.93 559.202 1321.25 616.394 1289.42 676.457C1260.44 731.22 1236.27 787.859 1204.8 843.837C1179.73 888.442 1141.51 933.489 1088.89 961.423C1035.55 989.687 983.818 1009.45 922.484 1015.85C904.884 1017.73 886.395 1018.61 867.906 1018.39C822.394 1017.84 774.571 1010.33 731.37 993.22C683.014 974.009 644.613 943.978 610.657 913.284C597.679 901.471 585.057 889.546 572.79 877.401C490.478 795.919 422.21 708.144 325.32 632.293C267.541 587.025 187.007 548.161 103.983 537.783C22.7375 527.404 -44.819 540.322 -118.42 552.136C-140.643 555.669 -164.821 559.534 -191.666 558.981C-232.733 558.209 -271.667 546.726 -307.578 537.341" stroke="#A8A8A8" stroke-width="0.4333" stroke-miterlimit="10"/>
<path d="M2066.32 292.454C1880.54 283.621 1684.1 321.602 1550.41 397.564C1494.23 429.472 1449.6 466.569 1411.56 505.765C1361.07 557.546 1321.25 613.634 1287.82 672.813C1257.6 726.693 1232.36 782.671 1200.53 837.875C1175.11 881.928 1137.6 926.313 1086.93 955.019C1034.31 984.719 982.575 1006.47 920.53 1014.86C902.574 1017.29 883.907 1018.73 864.885 1018.95C818.484 1019.5 769.239 1012.87 724.971 996.202C675.371 977.432 636.081 947.291 601.414 916.486C588.081 904.673 575.28 892.638 562.658 880.383C478.39 798.569 408.522 710.353 310.388 633.949C253.676 589.786 175.63 551.474 94.7401 539.55C15.6278 527.736 -51.3955 537.452 -124.285 546.837C-146.33 549.707 -170.153 552.799 -196.464 552.136C-236.643 551.032 -274.865 540.433 -310.599 531.932" stroke="#ACACAC" stroke-width="0.4167" stroke-miterlimit="10"/>
<path d="M2069.88 297.091C1885.88 289.363 1692.46 326.681 1557.52 400.324C1500.81 431.238 1454.94 467.342 1415.47 505.544C1363.03 556.111 1321.07 611.095 1286.23 669.28C1254.58 722.277 1228.45 777.481 1196.27 832.023C1170.67 875.414 1133.69 919.247 1084.8 948.615C1032.89 979.751 981.334 1003.6 918.222 1013.87C900.088 1016.85 881.066 1018.84 861.688 1019.5C814.22 1021.15 763.731 1015.41 718.397 999.072C667.551 980.634 627.373 950.492 591.995 919.467C578.306 907.543 565.15 895.509 552.35 883.253C466.304 801.109 394.836 712.45 295.279 635.495C239.456 592.325 164.077 554.676 85.4985 541.206C8.51962 527.846 -57.9701 534.471 -130.149 541.537C-152.016 543.635 -175.483 546.174 -201.261 545.181C-240.551 543.745 -278.24 534.029 -313.618 526.301" stroke="#B0B0B0" stroke-width="0.4" stroke-miterlimit="10"/>
<path d="M2073.44 301.839C1891.21 295.325 1700.81 331.76 1564.81 403.084C1507.56 433.005 1460.45 468.004 1419.56 505.212C1365.34 554.455 1321.25 608.334 1284.98 665.637C1251.91 717.75 1224.89 772.182 1192.36 826.061C1166.4 868.9 1130.31 912.07 1083.02 942.212C1032 974.782 980.266 1000.62 916.443 1012.87C897.954 1016.41 878.576 1018.84 858.842 1020.05C810.308 1022.92 758.752 1017.95 712.173 1001.94C660.084 983.946 619.017 953.584 582.927 922.559C569.06 910.635 555.549 898.49 542.571 886.234C454.57 803.759 381.502 714.548 280.701 637.151C225.944 595.085 152.876 557.988 76.7864 543.083C2.1187 528.288 -64.0154 531.711 -135.483 536.458C-157.172 537.893 -180.284 539.66 -205.351 538.556C-243.751 536.789 -280.907 527.846 -315.93 521.001" stroke="#B4B4B4" stroke-width="0.3833" stroke-miterlimit="10"/>
<path d="M2076.81 306.476C1896.37 301.066 1708.98 336.839 1571.92 405.844C1514.32 434.882 1465.78 468.667 1423.47 504.881C1367.29 552.799 1321.25 605.574 1283.38 661.993C1248.89 713.334 1220.98 766.992 1188.09 820.099C1161.78 862.386 1126.58 904.893 1080.89 935.808C1030.58 969.814 978.841 997.747 914.129 1011.88C895.462 1015.96 875.728 1018.95 855.461 1020.6C806.039 1024.58 753.06 1020.49 705.415 1004.92C652.081 987.369 610.125 956.896 573.146 925.761C558.924 913.837 545.235 901.581 531.901 889.326C442.122 806.519 367.277 716.867 265.231 639.028C211.363 597.956 140.962 561.521 67.0056 545.07C-5.52879 528.73 -71.1297 529.061 -141.886 531.38C-163.398 532.042 -186.154 533.256 -210.687 531.932C-248.199 529.944 -284.822 521.774 -319.667 515.701" stroke="#B8B8B8" stroke-width="0.3667" stroke-miterlimit="10"/>
<path d="M2080.37 311.224C1901.7 306.918 1717.34 341.917 1579.03 408.605C1520.9 436.648 1471.12 469.33 1427.38 504.66C1369.25 551.363 1321.25 603.035 1281.78 658.35C1245.87 708.807 1217.07 761.693 1183.82 814.137C1157.34 855.872 1122.67 897.717 1078.76 929.404C1029.33 964.956 977.6 994.877 911.999 1010.89C892.976 1015.52 872.887 1019.06 852.264 1021.15C801.775 1026.23 747.552 1023.03 698.84 1007.79C644.261 990.681 601.416 960.098 563.727 928.852C549.327 916.817 535.282 904.673 521.593 892.196C429.858 809.058 353.413 718.854 250.122 640.574C197.322 600.606 129.41 564.723 57.7641 546.837C-12.6369 529.061 -77.7045 526.08 -147.75 526.19C-169.084 526.19 -191.484 526.632 -215.484 525.086C-252.107 522.768 -288.019 515.37 -322.686 510.181" stroke="#BCBCBC" stroke-width="0.35" stroke-miterlimit="10"/>
<path d="M2083.93 315.861C1906.86 312.659 1725.7 346.996 1586.32 411.365C1527.65 438.415 1476.63 469.992 1431.47 504.329C1371.56 549.707 1321.43 600.274 1280.36 654.706C1243.2 704.28 1213.34 756.503 1179.56 808.175C1152.71 849.357 1119.11 890.65 1076.62 923C1028.09 959.987 976.176 992.006 909.687 1009.89C890.486 1015.08 870.042 1019.06 848.886 1021.71C797.329 1028 741.862 1025.57 692.083 1010.67C636.26 993.993 592.704 963.3 554.126 931.943C539.37 919.909 525.148 907.653 511.103 895.177C417.591 811.708 339.545 721.062 234.832 642.23C183.098 603.256 117.675 568.035 48.163 548.603C-20.1047 529.392 -84.6388 523.209 -154.151 520.89C-175.307 520.117 -197.352 519.897 -220.819 518.241C-256.73 515.591 -291.931 509.077 -326.242 504.66" stroke="#C0C0C0" stroke-width="0.3333" stroke-miterlimit="10"/>
<path d="M2087.3 320.608C1912.01 318.511 1733.88 352.185 1593.25 414.235C1534.05 440.292 1481.78 470.875 1435.21 504.219C1373.34 548.382 1321.07 597.735 1278.58 651.284C1240 699.974 1209.25 751.425 1175.11 802.434C1147.91 843.064 1115.2 883.695 1074.31 916.817C1026.84 955.35 974.755 989.356 907.376 1009.12C887.821 1014.86 867.02 1019.39 845.687 1022.48C793.241 1029.88 736.529 1028.44 685.507 1013.87C628.439 997.526 583.994 966.833 544.705 935.366C529.593 923.221 515.015 910.966 500.971 898.489C405.68 814.579 326.035 723.491 219.9 644.217C169.054 606.237 106.12 571.679 39.0971 550.811C-26.8594 530.054 -91.0381 520.78 -159.839 516.143C-180.639 514.707 -202.506 513.824 -225.44 511.837C-260.463 508.856 -295.13 503.225 -329.086 499.581" stroke="#C4C4C4" stroke-width="0.3167" stroke-miterlimit="10"/>
<path d="M2090.86 325.246C1917.35 324.252 1742.23 357.154 1600.54 416.885C1540.98 441.948 1487.29 471.427 1439.29 503.777C1375.65 546.616 1321.25 594.975 1277.34 647.53C1237.34 695.337 1205.69 746.125 1171.2 796.361C1143.82 836.44 1111.82 876.408 1072.53 910.303C1026.13 950.271 973.688 986.265 905.42 1008.02C885.686 1014.31 864.53 1019.39 842.663 1022.92C789.151 1031.53 731.195 1030.87 679.105 1016.63C620.793 1000.73 575.459 969.924 535.459 938.347C520.17 926.202 505.236 913.836 490.836 901.36C393.59 817.118 312.345 725.478 204.965 645.873C155.187 608.997 94.7414 575.101 29.8516 552.578C-33.9716 530.386 -97.6169 517.909 -165.707 510.954C-186.329 508.745 -207.841 507.2 -230.241 505.102C-264.375 501.79 -298.331 496.932 -332.109 494.171" stroke="#C8C8C8" stroke-width="0.3" stroke-miterlimit="10"/>
<path d="M2094.41 329.993C1922.68 330.104 1750.59 362.343 1607.83 419.756C1547.74 443.935 1492.81 472.2 1443.38 503.667C1377.78 545.291 1321.43 592.436 1275.91 644.107C1234.49 691.031 1201.96 741.046 1167.11 790.62C1139.38 830.036 1108.44 869.452 1070.75 904.01C1025.42 945.524 972.798 983.505 903.641 1007.13C883.552 1013.98 862.041 1019.5 839.818 1023.47C785.24 1033.19 726.039 1033.41 672.882 1019.61C613.326 1004.15 567.103 973.236 526.391 941.549C510.747 929.404 495.635 916.928 480.88 904.341C381.856 819.768 299.01 727.576 190.209 647.53C141.497 611.647 83.5405 578.414 20.9618 554.344C-40.728 530.606 -103.84 515.039 -171.219 505.654C-191.664 502.783 -212.819 500.575 -234.686 498.146C-267.931 494.503 -301.354 490.528 -334.777 488.651" stroke="#CCCCCC" stroke-width="0.2833" stroke-miterlimit="10"/>
<path d="M2097.79 334.63C1927.83 335.845 1758.94 367.311 1614.76 422.406C1554.14 445.591 1498.14 472.752 1447.12 503.225C1379.74 543.524 1321.25 589.565 1274.14 640.353C1231.47 686.504 1197.87 735.636 1162.67 784.547C1134.76 823.411 1104.71 862.165 1068.44 897.496C1024.18 940.445 971.199 980.413 901.153 1005.92C880.886 1013.31 859.02 1019.39 836.264 1023.8C780.796 1034.62 720.173 1035.73 665.95 1022.26C605.149 1007.24 558.037 976.218 516.614 944.42C500.792 932.164 485.325 919.799 470.214 907.101C369.235 822.197 285.145 729.343 174.743 648.965C127.098 614.076 71.6304 581.505 11.185 556.001C-48.3714 530.827 -110.95 512.058 -177.618 500.354C-197.885 496.711 -218.685 493.84 -240.019 491.301C-272.375 487.326 -305.264 484.124 -338.331 483.131" stroke="#D0D0D0" stroke-width="0.2667" stroke-miterlimit="10"/>
<path d="M2101.35 339.268C1768.54 343.794 1445.16 459.945 1272.71 636.71C1193.42 717.971 1145.24 809.721 1066.49 891.092C1023.47 935.587 969.953 977.543 899.197 1004.92C828.262 1032.42 737.772 1043.57 659.549 1025.24C597.504 1010.67 549.503 979.419 507.369 947.622C382.389 853.001 288.166 743.696 159.986 650.732C31.8064 557.767 -144.018 479.156 -340.999 477.721" stroke="#D4D4D4" stroke-width="0.25" stroke-miterlimit="10"/>
</g>
<defs>
<clipPath id="clip0_20963_184503">
<rect width="2181" height="1372" fill="white" transform="matrix(-1 0 0 1 1891 -299)"/>
</clipPath>
</defs>
</svg>
