<svg width="200" height="200" viewBox="0 0 200 200" fill="none" xmlns="http://www.w3.org/2000/svg">
  <!-- Modern minimal azure blue logo - Square version -->

  <!-- Geometric "G" shape with modern tech aesthetic -->
  <g transform="translate(40, 40)">
    <!-- Main "G" structure -->
    <path d="M 60 0 L 100 0 A 60 60 0 0 1 100 120 L 60 120 L 60 90 L 90 90 A 30 30 0 0 0 90 30 L 60 30 A 30 30 0 0 0 30 60 A 30 30 0 0 0 60 90 L 60 120 A 60 60 0 0 1 60 0 Z"
          fill="#0EA5E9"/>

    <!-- Horizontal accent bar -->
    <rect x="58" y="52" width="38" height="12" rx="6" fill="#0EA5E9"/>

    <!-- Minimal dot accent -->
    <circle cx="60" cy="60" r="8" fill="white"/>
  </g>
</svg>
