<svg width="240" height="80" viewBox="0 0 240 80" fill="none" xmlns="http://www.w3.org/2000/svg">
  <!-- Modern minimal azure blue logo -->

  <!-- Geometric icon: Abstract "G" with modern tech feel -->
  <g transform="translate(15, 20)">
    <!-- Outer frame -->
    <path d="M 20 0 L 40 0 A 20 20 0 0 1 40 40 L 25 40 L 25 30 L 35 30 A 10 10 0 0 0 35 10 L 20 10 A 10 10 0 0 0 10 20 A 10 10 0 0 0 20 30 L 20 40 A 20 20 0 0 1 20 0 Z"
          fill="#0EA5E9"/>

    <!-- Inner accent -->
    <rect x="23" y="18" width="12" height="4" rx="2" fill="#0EA5E9"/>
  </g>

  <!-- Text: GVS -->
  <text x="75" y="52" font-family="system-ui, -apple-system, sans-serif" font-size="42" font-weight="900" fill="#0EA5E9" letter-spacing="-2">
    GVS
  </text>
</svg>
